<?xml version="1.0" standalone="no"?>
<!DOCTYPE svg PUBLIC "-//W3C//DTD SVG 20010904//EN"
 "http://www.w3.org/TR/2001/REC-SVG-20010904/DTD/svg10.dtd">
<svg version="1.0" xmlns="http://www.w3.org/2000/svg"
 width="260.000000pt" height="260.000000pt" viewBox="0 0 260.000000 260.000000"
 preserveAspectRatio="xMidYMid meet">
<metadata>
Created by potrace 1.11, written by Peter Selinger 2001-2013
</metadata>
<g transform="translate(0.000000,260.000000) scale(0.100000,-0.100000)"
fill="#000000" stroke="none">
<path d="M120 2502 c-41 -22 -60 -54 -60 -100 0 -70 40 -119 105 -127 33 -5
96 17 112 39 16 21 17 21 212 -44 108 -36 202 -69 209 -73 6 -5 12 -20 12 -34
0 -17 13 -38 37 -61 35 -32 40 -34 89 -29 62 6 72 -5 49 -60 -28 -68 -14 -149
37 -203 32 -36 25 -56 -21 -63 -56 -7 -92 -27 -118 -66 -24 -36 -31 -100 -14
-143 8 -20 2 -31 -39 -74 -45 -47 -49 -49 -76 -38 -52 21 -127 8 -180 -33 -62
-46 -70 -168 -17 -242 64 -90 233 -77 289 23 23 40 25 105 6 164 -11 32 -9 36
32 78 38 40 45 44 68 35 35 -13 98 -8 138 12 l33 17 133 -96 133 -95 -4 -37
c-10 -96 38 -169 121 -188 l49 -10 17 -66 18 -67 -30 -30 c-25 -24 -30 -38
-30 -77 0 -54 29 -109 63 -120 12 -5 40 -8 62 -9 38 0 40 -2 88 -80 27 -44 57
-93 67 -110 39 -68 84 -141 97 -156 12 -14 10 -22 -12 -55 -23 -33 -26 -46
-21 -86 6 -57 30 -92 72 -107 42 -15 70 -14 111 5 41 20 62 49 67 95 8 71 -41
139 -106 144 -16 2 -30 4 -32 6 -1 2 -54 90 -117 195 -109 179 -114 192 -103
219 23 58 -2 136 -52 160 -18 8 -37 15 -43 15 -5 0 -15 19 -21 43 -6 23 -15
56 -20 74 -7 28 -5 34 16 48 49 32 71 121 45 187 -9 25 -4 31 90 120 54 51
103 94 107 96 5 1 22 -3 38 -9 37 -15 89 -19 136 -9 33 7 38 5 44 -14 4 -11 9
-23 13 -26 3 -3 15 -23 26 -45 11 -22 44 -84 74 -139 53 -98 54 -99 37 -127
-17 -29 -24 -98 -12 -117 10 -17 -17 -29 -59 -27 -54 3 -101 -21 -120 -61 -44
-92 19 -189 118 -179 35 3 38 1 83 -68 43 -65 45 -71 29 -83 -25 -19 -32 -102
-12 -141 21 -39 39 -53 82 -63 77 -17 144 28 152 103 10 86 -38 141 -127 146
-24 2 -114 147 -104 168 11 26 12 74 2 102 -10 28 3 48 23 35 42 -25 136 6
157 52 39 83 -17 184 -102 184 -21 0 -35 21 -116 171 -92 170 -92 171 -73 192
65 75 61 219 -8 294 -49 52 -135 72 -227 50 -39 -10 -112 -64 -112 -84 0 -18
-31 -16 -108 7 -37 12 -83 25 -102 30 -99 27 -295 83 -297 84 -1 1 -5 20 -8
42 -17 108 -127 173 -229 134 -34 -12 -39 -1 -40 79 -1 97 -22 120 -121 135
-21 4 -76 -20 -87 -37 -4 -6 -86 16 -219 59 -207 68 -213 70 -221 100 -18 70
-108 104 -178 66z m1275 -702 c83 -23 185 -51 228 -63 l77 -21 1 -36 c0 -19 8
-55 17 -80 l18 -45 -101 -97 c-67 -66 -105 -96 -115 -92 -39 17 -116 15 -151
-4 l-36 -18 -57 43 c-31 24 -61 43 -66 43 -6 0 -10 3 -10 8 0 4 -25 23 -55 42
-30 19 -55 38 -55 43 0 4 -7 7 -15 7 -11 0 -14 13 -14 54 1 56 -10 86 -43 123
-16 17 -18 25 -8 42 6 12 15 19 21 15 22 -13 108 18 141 52 38 39 26 40 223
-16z"/>
</g>
</svg>
